<svg id="visual" width="3000" height="2000" xmlns="http://www.w3.org/2000/svg" version="1.1"><path d="m0 381 45.5-3.3c45.5-3.4 136.5-10 227.3-23.4 90.9-13.3 181.5-33.3 272.4-30C636 327.7 727 354.3 818 351c91-3.3 182-36.7 273-60 91-23.3 182-36.7 272.8-46.7 90.9-10 181.5-16.6 272.4-13.3 90.8 3.3 181.8 16.7 272.8 40s182 56.7 273 60c91 3.3 182-23.3 272.8-60 90.9-36.7 181.5-83.3 272.4-93.3 90.8-10 181.8 16.6 227.3 30L3000 221V0H0Z" fill="#000d1b"/><path d="m0 681 45.5 3.3c45.5 3.4 136.5 10 227.3-20 90.9-30 181.5-96.6 272.4-103.3C636 554.3 727 607.7 818 601c91-6.7 182-73.3 273-100 91-26.7 182-13.3 272.8-26.7 90.9-13.3 181.5-53.3 272.4-70 90.8-16.6 181.8-10 272.8 10s182 53.4 273 86.7c91 33.3 182 66.7 272.8 26.7 90.9-40 181.5-153.4 272.4-193.4 90.8-40 181.8-6.6 227.3 10L3000 361V219l-45.5-13.3c-45.5-13.4-136.5-40-227.3-30-90.9 10-181.5 56.6-272.4 93.3-90.8 36.7-181.8 63.3-272.8 60-91-3.3-182-36.7-273-60-91-23.3-182-36.7-272.8-40-90.9-3.3-181.5 3.3-272.4 13.3-90.8 10-181.8 23.4-272.8 46.7-91 23.3-182 56.7-273 60-91 3.3-182-23.3-272.8-26.7-90.9-3.3-181.5 16.7-272.4 30-90.8 13.4-181.8 20-227.3 23.4L0 379Z" fill="#000f1e"/><path d="m0 841 45.5 36.7C91 914.3 182 987.7 272.8 1001c90.9 13.3 181.5-33.3 272.4-23.3 90.8 10 181.8 76.6 272.8 76.6s182-66.6 273-126.6 182-113.4 272.8-150c90.9-36.7 181.5-56.7 272.4-40 90.8 16.6 181.8 70 272.8 90s182 6.6 273 33.3c91 26.7 182 93.3 272.8 76.7 90.9-16.7 181.5-116.7 272.4-130 90.8-13.4 181.8 60 227.3 96.6L3000 941V359l-45.5-16.7c-45.5-16.6-136.5-50-227.3-10-90.9 40-181.5 153.4-272.4 193.4-90.8 40-181.8 6.6-272.8-26.7s-182-66.7-273-86.7-182-26.6-272.8-10c-90.9 16.7-181.5 56.7-272.4 70-90.8 13.4-181.8 0-272.8 26.7s-182 93.3-273 100c-91 6.7-182-46.7-272.8-40-90.9 6.7-181.5 73.3-272.4 103.3-90.8 30-181.8 23.4-227.3 20L0 679Z" fill="#012"/><path d="m0 1521 45.5 26.7c45.5 26.6 136.5 80 227.3 63.3 90.9-16.7 181.5-103.3 272.4-86.7C636 1541 727 1661 818 1654.3c91-6.6 182-140 273-213.3 91-73.3 182-86.7 272.8-93.3 90.9-6.7 181.5-6.7 272.4-23.4 90.8-16.6 181.8-50 272.8 6.7s182 203.3 273 270c91 66.7 182 53.3 272.8-16.7 90.9-70 181.5-196.6 272.4-260 90.8-63.3 181.8-63.3 227.3-63.3h45.5V939l-45.5-36.7c-45.5-36.6-136.5-110-227.3-96.6-90.9 13.3-181.5 113.3-272.4 130-90.8 16.6-181.8-50-272.8-76.7-91-26.7-182-13.3-273-33.3-91-20-182-73.4-272.8-90-90.9-16.7-181.5 3.3-272.4 40-90.8 36.6-181.8 90-272.8 150s-182 126.6-273 126.6-182-66.6-272.8-76.6c-90.9-10-181.5 36.6-272.4 23.3C182 985.7 91 912.3 45.5 875.7L0 839Z" fill="#002442"/><path d="M0 2001H3000v-742h-45.5c-45.5 0-136.5 0-227.3 63.3-90.9 63.4-181.5 190-272.4 260-90.8 70-181.8 83.4-272.8 16.7s-182-213.3-273-270c-91-56.7-182-23.3-272.8-6.7-90.9 16.7-181.5 16.7-272.4 23.4-90.8 6.6-181.8 20-272.8 93.3s-182 206.7-273 213.3c-91 6.7-182-113.3-272.8-130-90.9-16.6-181.5 70-272.4 86.7-90.8 16.7-181.8-36.7-227.3-63.3L0 1519Z" fill="#003664"/></svg>