<svg version="1.0" xmlns="http://www.w3.org/2000/svg" width="1333.333" height="1333.333" viewBox="0 0 1000 1000"><path d="M99 345.5V405h152v359h150V405h152V286H99v59.5zM703.8 319.8l-66.7 33.7-.1 31.7V417h-49v98h49v71.4c0 42.5.4 76.7 1.1 84.3 3.2 37.7 9.9 56.8 26.1 73.9 17.9 18.8 39.3 25.8 83.3 27.1 20.3.6 40.1-.5 61-3.2 14.1-1.9 39.8-6.5 40.7-7.4.4-.3-1.3-19.3-3.7-42.1-5.8-54.1-5.2-50.3-7.8-49.7-1.2.3-7.8 2-14.7 3.8-10.1 2.6-14.5 3.3-23 3.3-11.6.1-14.6-.9-20.8-6.7-6.7-6.4-6.6-5.3-7-84l-.3-70.7H846v-98h-74v-65.5c0-36-.3-65.5-.7-65.5-.5.1-30.8 15.3-67.5 33.8z"/></svg>