<?xml version="1.0" standalone="no"?>
<!DOCTYPE svg PUBLIC "-//W3C//DTD SVG 20010904//EN"
 "http://www.w3.org/TR/2001/REC-SVG-20010904/DTD/svg10.dtd">
<svg version="1.0" xmlns="http://www.w3.org/2000/svg" width="1000.000000pt" height="1000.000000pt" viewBox="0 0 1000.000000 1000.000000" preserveAspectRatio="xMidYMid meet">
<metadata>
Created by potrace 1.16, written by Peter Selinger 2001-2019
</metadata>
<g transform="translate(0.000000,1000.000000) scale(0.100000,-0.100000)" fill="#4e50d3" stroke="none">
<path d="M990 8485 l0 -765 835 0 835 0 0 -2115 0 -2115 935 0 935 0 0 720 0
720 440 0 440 0 0 -2115 0 -2115 935 0 935 0 0 2115 0 2115 815 0 815 0 0 765
0 765 -2190 0 -2190 0 0 630 0 630 815 0 815 0 0 765 0 765 -2585 0 -2585 0 0
-765z m4960 -5 l0 -560 -815 0 -815 0 0 -730 0 -730 -290 0 -290 0 0 -765 0
-765 290 0 290 0 0 -625 0 -625 -725 0 -725 0 0 2120 0 2120 -835 0 -835 0 0
560 0 560 2375 0 2375 0 0 -560z"></path>
</g>
</svg>
