<svg version="1.0" xmlns="http://www.w3.org/2000/svg" width="682.667" height="682.667" viewBox="0 0 512 512"><path d="M92.9 9.5C45 18.3 9.3 54.5 1.5 102 .2 110.2 0 130.6 0 254.2c0 95.5.4 145.2 1.1 150.5 6 44.4 38.2 81.2 81.1 92.8 14.6 4 29.1 4.6 92 4.3l57.8-.3 2.7-2.7c3.7-3.7 3.7-8.9 0-12.6l-2.7-2.7-68.8-.5-68.7-.6-9-2.7c-32-10-55.4-34.2-64.4-66.7l-2.6-9.5-.3-141c-.4-150.3-.2-156 4.4-170.8C30.9 65.2 52.3 42.2 78 32.5c16.7-6.3 5.5-5.9 162-6.3 100-.2 145.5 0 152.5.8 37.2 4.1 66.6 28.7 79.1 66l2.9 8.5.5 64c.4 49.2.8 64.5 1.8 66.2 2.7 4.9 9.4 5.8 13.9 1.9l2.8-2.4.3-54.4c.5-74.1-.6-83.6-11.8-106.5-14.5-29.6-39.6-50-72.8-59.1l-9.7-2.7L250 8.3c-123.5-.1-150.8.1-157.1 1.2z"/><path d="M178.3 72.7c-.7.2-14.4 15.7-30.4 34.4-16 18.6-29.5 33.9-30 33.9s-9-6.1-18.9-13.5C83.8 116.2 80.4 114 77.4 114c-4.9 0-8.4 3.7-8.4 8.8 0 4.9 1.1 5.9 26.8 25.1 22.7 16.9 24.5 17.6 30.1 12.3 1.7-1.5 17-19.1 34.1-39.1 28.9-33.8 31-36.6 31-40.1 0-6.1-7-10.7-12.7-8.3zM240.6 120.6c-3.4 3.5-3.5 8.3-.2 12.1l2.4 2.8 83.9.3c55.7.2 85 0 87.4-.7 6.4-1.9 8.3-9.8 3.4-14.6l-2.4-2.5H243.3l-2.7 2.6zM178.3 200.7c-.7.2-14.4 15.7-30.4 34.4-16 18.6-29.5 33.9-30 33.9s-9-6.1-18.9-13.5C83.8 244.2 80.4 242 77.4 242c-4.9 0-8.4 3.7-8.4 8.8 0 4.9 1.1 5.9 26.8 25.1 22.7 16.9 24.5 17.6 30.1 12.3 1.7-1.5 17-19.1 34.1-39.1 28.9-33.8 31-36.6 31-40.1 0-6.1-7-10.7-12.7-8.3zM240.6 248.6c-3.4 3.5-3.5 8.3-.2 12.1l2.4 2.8 83.9.3c55.7.2 85 0 87.4-.7 6.4-1.9 8.3-9.8 3.4-14.6l-2.4-2.5H243.3l-2.7 2.6zM449 265.6c-3.8 1.4-15.2 12.3-77.5 74.5l-73 72.9-9.4 34.8c-6.8 25.1-10 35.4-11.6 37.2-6.4 7.3-7.1 11.5-2.6 16.1 4.2 4.1 8 3.9 13.2-.8 3.8-3.5 5.9-4.2 39.6-13.3l35.5-9.7 71.5-71.4c53.4-53.4 72.1-72.6 74-76.3 3.6-7.1 4.1-14.6 1.2-22.1-2-5.3-4.1-7.9-18.3-22.1-9.9-9.9-17.8-17-20.6-18.4-5.8-3-15.8-3.6-22-1.4zm13.3 17.8c3.9 1.7 29.2 27.1 30.5 30.7 1.9 4.9.3 7.3-13.9 21.5L465 349.5l-19.2-19.3-19.3-19.2 13.5-13.6c12.1-12.1 15.6-15.1 18.3-15.3.4-.1 2.2.5 4 1.3zm-57 125.8L358.5 456l-19.2-19.2-19.3-19.3 46.7-46.7 46.8-46.8 19.2 19.2 19.3 19.3-46.7 46.7zM340 464.1c0 .8-38.1 11.2-38.7 10.6-.2-.3 1.9-9.3 4.9-20.1l5.3-19.6 14.2 14.2c7.9 7.9 14.3 14.5 14.3 14.9zM178.8 337.7c-1 .2-14.9 15.7-30.9 34.4-16 18.6-29.5 33.9-30 33.9s-9-6.1-18.9-13.5c-19.1-14.2-21.1-15.2-26-11.8-3.5 2.3-4 3.3-4 7.4 0 2.7.8 4.2 3.3 6.6 3.9 3.7 39.3 30.5 42.4 32.1 2.4 1.3 6.2 1.5 8.8.5 1-.3 16.5-17.9 34.6-39 31-36.1 32.9-38.5 32.9-42.2 0-3.2-.6-4.4-3.1-6.5-2.9-2.5-5.2-2.9-9.1-1.9z"/></svg>