<svg id="visual" viewBox="0 0 3000 2000" width="3000" height="2000" xmlns="http://www.w3.org/2000/svg" xmlns:xlink="http://www.w3.org/1999/xlink" version="1.1"><path d="M0 381L45.5 377.7C91 374.3 182 367.7 272.8 354.3C363.7 341 454.3 321 545.2 324.3C636 327.7 727 354.3 818 351C909 347.7 1000 314.3 1091 291C1182 267.7 1273 254.3 1363.8 244.3C1454.7 234.3 1545.3 227.7 1636.2 231C1727 234.3 1818 247.7 1909 271C2000 294.3 2091 327.7 2182 331C2273 334.3 2364 307.7 2454.8 271C2545.7 234.3 2636.3 187.7 2727.2 177.7C2818 167.7 2909 194.3 2954.5 207.7L3000 221L3000 0L2954.5 0C2909 0 2818 0 2727.2 0C2636.3 0 2545.7 0 2454.8 0C2364 0 2273 0 2182 0C2091 0 2000 0 1909 0C1818 0 1727 0 1636.2 0C1545.3 0 1454.7 0 1363.8 0C1273 0 1182 0 1091 0C1000 0 909 0 818 0C727 0 636 0 545.2 0C454.3 0 363.7 0 272.8 0C182 0 91 0 45.5 0L0 0Z" fill="#000d1b"></path><path d="M0 681L45.5 684.3C91 687.7 182 694.3 272.8 664.3C363.7 634.3 454.3 567.7 545.2 561C636 554.3 727 607.7 818 601C909 594.3 1000 527.7 1091 501C1182 474.3 1273 487.7 1363.8 474.3C1454.7 461 1545.3 421 1636.2 404.3C1727 387.7 1818 394.3 1909 414.3C2000 434.3 2091 467.7 2182 501C2273 534.3 2364 567.7 2454.8 527.7C2545.7 487.7 2636.3 374.3 2727.2 334.3C2818 294.3 2909 327.7 2954.5 344.3L3000 361L3000 219L2954.5 205.7C2909 192.3 2818 165.7 2727.2 175.7C2636.3 185.7 2545.7 232.3 2454.8 269C2364 305.7 2273 332.3 2182 329C2091 325.7 2000 292.3 1909 269C1818 245.7 1727 232.3 1636.2 229C1545.3 225.7 1454.7 232.3 1363.8 242.3C1273 252.3 1182 265.7 1091 289C1000 312.3 909 345.7 818 349C727 352.3 636 325.7 545.2 322.3C454.3 319 363.7 339 272.8 352.3C182 365.7 91 372.3 45.5 375.7L0 379Z" fill="#000f1e"></path><path d="M0 841L45.5 877.7C91 914.3 182 987.7 272.8 1001C363.7 1014.3 454.3 967.7 545.2 977.7C636 987.7 727 1054.3 818 1054.3C909 1054.3 1000 987.7 1091 927.7C1182 867.7 1273 814.3 1363.8 777.7C1454.7 741 1545.3 721 1636.2 737.7C1727 754.3 1818 807.7 1909 827.7C2000 847.7 2091 834.3 2182 861C2273 887.7 2364 954.3 2454.8 937.7C2545.7 921 2636.3 821 2727.2 807.7C2818 794.3 2909 867.7 2954.5 904.3L3000 941L3000 359L2954.5 342.3C2909 325.7 2818 292.3 2727.2 332.3C2636.3 372.3 2545.7 485.7 2454.8 525.7C2364 565.7 2273 532.3 2182 499C2091 465.7 2000 432.3 1909 412.3C1818 392.3 1727 385.7 1636.2 402.3C1545.3 419 1454.7 459 1363.8 472.3C1273 485.7 1182 472.3 1091 499C1000 525.7 909 592.3 818 599C727 605.7 636 552.3 545.2 559C454.3 565.7 363.7 632.3 272.8 662.3C182 692.3 91 685.7 45.5 682.3L0 679Z" fill="#001122"></path><path d="M0 1521L45.5 1547.7C91 1574.3 182 1627.7 272.8 1611C363.7 1594.3 454.3 1507.7 545.2 1524.3C636 1541 727 1661 818 1654.3C909 1647.7 1000 1514.3 1091 1441C1182 1367.7 1273 1354.3 1363.8 1347.7C1454.7 1341 1545.3 1341 1636.2 1324.3C1727 1307.7 1818 1274.3 1909 1331C2000 1387.7 2091 1534.3 2182 1601C2273 1667.7 2364 1654.3 2454.8 1584.3C2545.7 1514.3 2636.3 1387.7 2727.2 1324.3C2818 1261 2909 1261 2954.5 1261L3000 1261L3000 939L2954.5 902.3C2909 865.7 2818 792.3 2727.2 805.7C2636.3 819 2545.7 919 2454.8 935.7C2364 952.3 2273 885.7 2182 859C2091 832.3 2000 845.7 1909 825.7C1818 805.7 1727 752.3 1636.2 735.7C1545.3 719 1454.7 739 1363.8 775.7C1273 812.3 1182 865.7 1091 925.7C1000 985.7 909 1052.3 818 1052.3C727 1052.3 636 985.7 545.2 975.7C454.3 965.7 363.7 1012.3 272.8 999C182 985.7 91 912.3 45.5 875.7L0 839Z" fill="#002442"></path><path d="M0 2001L45.5 2001C91 2001 182 2001 272.8 2001C363.7 2001 454.3 2001 545.2 2001C636 2001 727 2001 818 2001C909 2001 1000 2001 1091 2001C1182 2001 1273 2001 1363.8 2001C1454.7 2001 1545.3 2001 1636.2 2001C1727 2001 1818 2001 1909 2001C2000 2001 2091 2001 2182 2001C2273 2001 2364 2001 2454.8 2001C2545.7 2001 2636.3 2001 2727.2 2001C2818 2001 2909 2001 2954.5 2001L3000 2001L3000 1259L2954.5 1259C2909 1259 2818 1259 2727.2 1322.3C2636.3 1385.7 2545.7 1512.3 2454.8 1582.3C2364 1652.3 2273 1665.7 2182 1599C2091 1532.3 2000 1385.7 1909 1329C1818 1272.3 1727 1305.7 1636.2 1322.3C1545.3 1339 1454.7 1339 1363.8 1345.7C1273 1352.3 1182 1365.7 1091 1439C1000 1512.3 909 1645.7 818 1652.3C727 1659 636 1539 545.2 1522.3C454.3 1505.7 363.7 1592.3 272.8 1609C182 1625.7 91 1572.3 45.5 1545.7L0 1519Z" fill="#003664"></path></svg>